# xmcd CD database file
#
# Track frame offsets:
#	150
#	14202
#	24932
#	38425
#	53577
#	67032
#	80004
#	90607
#	103842
#	116042
#	130672
#	144080
#	157717
#	171180
#	182890
#	194607
#	205880
#	223072
#	233757
#	247297
#	263945
#	283062
#	296722
#
# Disc length: 4136 seconds
#
# Revision: 0
# Processed by: cddbd v1.4PL0 Copyright (c) Steve Scherf et al.
# Submitted via: CDex 1.50
#
DISCID=57102617
DTITLE=Etta James - I Just want To Make Love To You
DYEAR=1996
DGENRE=Blues
TTITLE0=I Just want To Make Love To You
TTITLE1=Tell Mama
TTITLE2=Trust In Me
TTITLE3=You Can Leave Your Hat On
TTITLE4=Fool That I Am
TTITLE5=If I Can't Have You
TTITLE6=Miss Pitiful
TTITLE7=Pushover
TTITLE8=Stop The Wedding
TTITLE9=W.O.M.A.N.
TTITLE10=All I Could Do Was Cry
TTITLE11=My Dearest Darling
TTITLE12=Losers Weepers - Part 1
TTITLE13=Anything To Say You're Mine
TTITLE14=I'd Rather Go Blind
TTITLE15=Security
TTITLE16=lovin' Arms
TTITLE17=In The Basement - Part 1
TTITLE18=At Last
TTITLE19=Let's Burn Down The Cornfield
TTITLE20=Baby, What You Want Me To Do
TTITLE21=Something's Got A Hold On Me
TTITLE22=Seven Day Fool
EXTD=YEAR: 1996
EXTT0=
EXTT1=
EXTT2=
EXTT3=
EXTT4=
EXTT5=
EXTT6=
EXTT7=
EXTT8=
EXTT9=
EXTT10=
EXTT11=
EXTT12=
EXTT13=
EXTT14=
EXTT15=
EXTT16=
EXTT17=
EXTT18=
EXTT19=
EXTT20=
EXTT21=
EXTT22=
PLAYORDER=
